<?xml version="1.0" standalone="no"?>
<!DOCTYPE svg PUBLIC "-//W3C//DTD SVG 20010904//EN"
 "http://www.w3.org/TR/2001/REC-SVG-20010904/DTD/svg10.dtd">
<svg version="1.0" xmlns="http://www.w3.org/2000/svg"
 width="8000.000000pt" height="5331.000000pt" viewBox="0 0 8000.000000 5331.000000"
 preserveAspectRatio="xMidYMid meet">

<g transform="translate(0.000000,5331.000000) scale(0.100000,-0.100000)"
fill="#000000" stroke="none">
<path d="M38427 49357 l-289 -21 6 -65 c17 -176 806 -11519 804 -11541 -5 -39
-42 277 -254 2165 -109 963 -199 1752 -200 1754 -2 2 -41 -1 -88 -6 l-85 -9
-5 31 c-3 16 -238 1684 -521 3705 -284 2021 -518 3677 -521 3679 -4 4 -665
-87 -670 -92 -2 -1 355 -2545 792 -5652 436 -3108 793 -5657 791 -5664 -5 -31
-206 1014 -428 2219 -126 690 -232 1260 -234 1266 -2 8 -24 7 -76 -3 -44 -8
-75 -10 -78 -4 -4 5 -355 1649 -780 3653 -426 2004 -777 3646 -780 3650 -5 5
-633 -122 -660 -134 -4 -2 505 -2410 1131 -5353 626 -2942 1136 -5354 1135
-5359 -3 -9 -250 870 -351 1249 -35 132 -155 596 -267 1030 -111 435 -206 794
-210 799 -4 5 -34 2 -71 -7 -34 -9 -64 -15 -65 -14 -1 2 -446 1551 -988 3442
-542 1892 -989 3450 -993 3461 -7 21 -14 19 -330 -71 -178 -51 -325 -95 -327
-97 -3 -2 638 -2247 1424 -4989 786 -2741 1428 -4985 1427 -4986 -3 -3 -432
1198 -574 1607 -49 140 -162 476 -252 745 -89 270 -164 491 -165 493 -1 1 -28
-7 -60 -18 -32 -11 -61 -18 -63 -15 -3 3 -517 1412 -1143 3131 -626 1719
-1140 3128 -1142 3130 -6 7 -631 -223 -634 -233 -2 -5 737 -2042 1642 -4528
904 -2485 1643 -4520 1642 -4521 -2 -3 -581 1314 -785 1786 -46 107 -147 346
-224 530 -76 184 -146 340 -154 346 -8 6 -14 17 -14 23 0 14 -27 8 -73 -16
-16 -8 -30 -13 -32 -11 -2 2 -535 1198 -1185 2658 -650 1460 -1186 2659 -1190
2664 -10 10 -610 -253 -617 -270 -2 -6 796 -1806 1773 -4000 977 -2194 1778
-3996 1781 -4004 9 -28 -1127 2142 -1244 2375 -64 127 -119 232 -123 235 -4 3
-45 77 -90 165 -46 88 -85 162 -87 164 -2 3 -26 -6 -53 -19 -27 -13 -51 -22
-53 -19 -2 2 -455 853 -1006 1891 -551 1037 -1008 1894 -1015 1904 -12 16 -37
4 -310 -140 -163 -87 -296 -161 -296 -165 0 -6 1214 -2292 3532 -6651 28 -52
46 -90 41 -85 -8 8 -667 1078 -1535 2490 -209 340 -481 780 -484 783 -1 2 -26
-9 -54 -25 -35 -19 -53 -25 -58 -17 -4 7 -302 485 -662 1063 -360 577 -657
1050 -660 1051 -14 1 -575 -357 -573 -365 1 -6 750 -1207 1665 -2670 1827
-2925 1696 -2714 1681 -2700 -7 7 -1553 2164 -1933 2697 -372 521 -716 997
-722 998 -4 0 -28 -14 -53 -32 -27 -19 -48 -28 -53 -22 -5 5 -84 113 -177 241
l-168 231 -106 -77 c-58 -43 -173 -126 -256 -186 -82 -59 -158 -116 -169 -126
-18 -17 27 -80 1469 -2066 819 -1126 1500 -2064 1513 -2083 19 -26 20 -30 5
-15 -17 17 -2007 2418 -2343 2828 -558 680 -1157 1395 -1167 1394 -7 -1 -85
-62 -173 -136 -144 -119 -160 -135 -147 -150 8 -9 198 -238 422 -510 401 -485
408 -494 387 -510 -11 -9 -75 -61 -140 -116 -99 -83 -118 -103 -108 -115 6 -8
605 -724 1332 -1590 726 -866 1333 -1591 1349 -1610 34 -43 211 -228 -1355
1415 -719 754 -1369 1438 -1445 1520 -76 83 -189 200 -249 261 -61 60 -444
460 -850 887 l-740 776 -50 -46 c-28 -26 -100 -94 -159 -151 l-108 -106 35
-35 c19 -20 522 -548 1118 -1174 l1084 -1137 -129 -128 -129 -128 1177 -1220
c648 -670 1196 -1239 1219 -1264 40 -44 39 -43 -14 6 -30 28 -671 613 -1425
1299 -1594 1452 -1546 1409 -1912 1757 -155 147 -292 272 -305 277 -13 5 -522
464 -1132 1020 -609 556 -1112 1011 -1116 1011 -11 0 -284 -299 -287 -313 -1
-7 839 -779 1867 -1716 1029 -937 1870 -1706 1870 -1710 0 -3 -52 -64 -116
-134 l-117 -129 34 -33 c19 -18 511 -461 1094 -985 583 -524 1069 -962 1080
-974 l20 -20 -20 15 c-149 117 -3111 2462 -3275 2593 -124 99 -445 362 -713
584 -341 281 -492 400 -500 393 -8 -6 -418 312 -1357 1056 -740 585 -1347
1066 -1350 1068 -6 4 -262 -317 -268 -334 -2 -5 1160 -930 2582 -2056 1423
-1125 2586 -2049 2586 -2053 0 -4 -48 -67 -105 -141 -84 -107 -103 -137 -93
-147 7 -6 468 -366 1023 -799 556 -433 1017 -794 1025 -803 8 -8 -28 14 -80
50 -52 36 -844 577 -1760 1203 -1830 1251 -1924 1316 -2899 2014 -617 442
-676 482 -696 471 -20 -11 -143 71 -1446 962 -783 536 -1429 977 -1435 981 -7
4 -57 -60 -128 -164 -64 -94 -119 -176 -121 -182 -2 -7 1381 -958 3172 -2182
1747 -1193 3185 -2177 3197 -2186 20 -17 20 -18 -76 -161 l-96 -144 984 -664
c541 -365 984 -665 984 -667 0 -2 -3 -2 -7 0 -379 220 -3765 2206 -3933 2307
-135 81 -759 462 -1387 848 -629 386 -1147 702 -1152 702 -5 0 -13 -9 -16 -21
-4 -13 -13 -19 -23 -17 -14 4 -2725 1588 -2799 1635 -21 14 -24 10 -106 -129
-46 -79 -96 -164 -111 -189 l-26 -46 3720 -2179 c2046 -1198 3720 -2182 3720
-2186 0 -4 -38 -72 -84 -151 l-83 -144 976 -563 c537 -310 980 -567 986 -572
12 -10 -563 273 -2650 1309 -1326 658 -1800 899 -3279 1671 -950 496 -1730
902 -1732 902 -2 0 -11 -15 -20 -32 -9 -18 -17 -34 -19 -35 -1 -2 -573 281
-1272 627 -699 347 -1275 630 -1280 630 -15 0 -198 -379 -188 -388 6 -5 1657
-825 3670 -1822 2013 -998 3877 -1921 4142 -2053 l482 -238 -58 -117 c-32 -64
-66 -133 -74 -153 l-15 -37 989 -483 c544 -265 988 -484 986 -485 -3 -4 -3947
1617 -4292 1764 -104 44 -1166 506 -2360 1027 -1193 521 -2178 949 -2188 952
-13 4 -22 -6 -37 -41 l-21 -45 -47 18 c-35 14 -1947 802 -2008 827 -10 5 -181
-392 -173 -400 2 -2 2009 -828 4459 -1836 2450 -1008 4457 -1834 4459 -1836 2
-2 -24 -72 -58 -155 -35 -83 -59 -155 -54 -159 4 -3 486 -199 1070 -435 585
-236 1061 -430 1060 -431 -3 -4 -3995 1321 -4397 1459 -151 52 -1492 527
-2980 1055 -1488 529 -2711 962 -2719 964 -9 2 -21 -18 -33 -55 -12 -34 -25
-57 -32 -54 -67 26 -1348 447 -1358 447 -8 0 -37 -72 -80 -202 -37 -111 -66
-203 -65 -204 1 -2 2079 -692 4617 -1535 2538 -842 4618 -1534 4622 -1538 4
-3 -15 -75 -43 -160 -27 -85 -48 -155 -47 -156 2 0 535 -174 1185 -385 651
-211 1181 -385 1179 -387 -3 -4 -3845 979 -4306 1102 -173 46 -1787 493 -3586
994 -1799 501 -3284 914 -3301 917 -29 6 -30 4 -43 -49 -7 -31 -17 -61 -21
-69 -7 -10 -62 1 -275 55 -146 37 -268 66 -271 64 -2 -3 -28 -97 -57 -211
l-53 -206 36 -9 c20 -6 2077 -532 4571 -1171 2494 -638 4551 -1165 4571 -1171
l37 -9 -39 -153 c-21 -83 -39 -155 -39 -159 0 -3 612 -158 1360 -344 747 -186
1358 -340 1356 -341 -3 -4 -3860 700 -4261 778 -143 27 -1969 399 -4058 826
-2088 427 -3800 773 -3803 770 -8 -7 -55 -239 -51 -244 2 -2 78 -18 168 -36
161 -32 164 -34 161 -58 -2 -13 -15 -86 -28 -162 -14 -77 -24 -141 -22 -143 3
-2 1975 -364 4384 -804 2408 -441 4382 -804 4385 -808 4 -4 -5 -74 -20 -157
-15 -82 -27 -151 -26 -153 2 -2 711 -128 1576 -282 866 -153 1567 -279 1558
-279 -22 -1 -3908 432 -4209 470 -233 29 -8346 1103 -8420 1114 l-36 6 -16
-128 c-9 -70 -15 -129 -14 -129 0 -1 223 -31 494 -66 271 -36 495 -68 498 -70
3 -3 -3 -76 -12 -162 -10 -86 -15 -159 -11 -162 3 -4 1828 -210 4054 -458
3837 -428 4048 -453 4051 -471 1 -11 -4 -81 -12 -155 -8 -74 -13 -136 -11
-139 3 -2 832 -91 1842 -197 1011 -106 1847 -195 1858 -198 11 -2 -29 -2 -90
0 -60 3 -877 36 -1815 74 -938 38 -1883 79 -2100 91 -217 11 -2296 139 -4620
283 -2324 145 -4226 262 -4228 261 -4 -3 -21 -249 -18 -253 2 -1 304 -21 672
-44 368 -22 672 -44 675 -47 3 -3 2 -78 -1 -166 -4 -88 -7 -161 -6 -162 1 0
1605 -67 3566 -147 1961 -81 3593 -149 3626 -152 l62 -5 -6 -153 -5 -153 94
-6 c52 -3 1044 -39 2206 -79 1161 -40 2111 -74 2109 -75 -2 -2 -785 -26 -1742
-53 -2046 -59 -2210 -61 -6829 -95 -1925 -14 -3645 -28 -3822 -31 l-323 -6 0
-125 0 -125 738 3 737 3 6 -161 c3 -90 7 -164 10 -166 2 -2 1383 36 3069 84
1685 49 3067 86 3070 83 3 -3 6 -73 8 -155 3 -130 5 -149 20 -149 9 0 1178 41
2597 90 1419 50 2586 89 2594 88 14 -3 -3149 -315 -3524 -348 -121 -10 -2141
-168 -4490 -351 -2348 -182 -4271 -332 -4273 -334 -4 -3 17 -247 21 -252 2 -1
338 24 748 56 409 32 746 56 748 54 3 -2 11 -75 20 -163 l15 -160 25 1 c15 0
1084 105 2376 233 1293 128 2353 230 2357 227 4 -3 14 -71 22 -150 9 -80 17
-145 19 -147 1 -1 1366 142 3032 317 1667 176 3041 318 3054 317 22 -3 -2512
-435 -3059 -523 -118 -19 -2098 -314 -4400 -655 -2301 -342 -4186 -623 -4187
-624 -4 -4 33 -246 38 -250 2 -2 346 48 764 110 418 62 761 112 762 110 2 -2
15 -73 30 -157 15 -85 28 -155 29 -157 1 -2 696 114 1544 258 848 144 1544
260 1546 257 3 -2 16 -69 30 -148 14 -79 27 -144 27 -145 1 -1 1604 282 3562
627 1958 346 3567 628 3575 628 19 -1 -76 -25 -1360 -337 -1376 -334 -958
-240 -5595 -1262 -2200 -486 -4002 -884 -4003 -886 -4 -2 46 -246 51 -250 1
-1 364 79 807 176 443 98 807 175 810 170 3 -4 20 -74 39 -154 19 -80 37 -146
41 -146 4 0 276 65 605 145 329 80 600 143 602 141 3 -3 21 -67 40 -143 19
-76 36 -139 37 -141 2 -1 1836 455 4076 1013 2240 558 4075 1014 4076 1012 6
-5 -1806 -588 -2181 -702 -115 -35 -1951 -577 -4080 -1205 -2128 -628 -3872
-1144 -3874 -1146 -7 -7 63 -244 72 -244 4 0 229 65 500 145 270 80 495 144
500 142 5 -1 52 -133 103 -292 52 -158 96 -291 99 -293 3 -3 2049 659 4548
1470 2498 812 4543 1475 4544 1474 3 -2 -1622 -659 -1795 -725 -57 -22 -1760
-658 -3785 -1412 -2025 -755 -3683 -1373 -3684 -1374 -1 0 13 -42 32 -93 19
-51 35 -98 35 -105 0 -6 -149 -72 -335 -146 -184 -74 -335 -138 -335 -142 0
-8 235 -592 247 -614 6 -11 1018 394 4932 1976 2708 1094 4925 1988 4927 1986
3 -2 -1278 -628 -1536 -750 -107 -51 -6574 -2993 -6777 -3083 l-52 -23 39 -87
c22 -47 40 -89 40 -94 0 -4 -478 -240 -1062 -525 -585 -285 -1067 -521 -1071
-525 -10 -9 282 -610 297 -610 7 0 9740 4742 10401 5068 28 13 46 20 40 15 -5
-5 -298 -175 -650 -378 -352 -202 -669 -385 -705 -405 -36 -21 -1437 -781
-3115 -1690 -1677 -908 -3052 -1654 -3055 -1656 -2 -3 15 -41 39 -85 24 -45
39 -84 35 -89 -5 -4 -751 -436 -1659 -959 -907 -524 -1651 -954 -1653 -956 -5
-5 330 -588 338 -589 4 -1 10649 6141 10750 6202 134 82 -276 -198 -946 -646
-304 -203 -569 -372 -3881 -2477 -1030 -655 -1873 -1193 -1873 -1196 0 -3 20
-37 45 -75 34 -53 41 -72 32 -80 -7 -6 -941 -638 -2077 -1404 -1136 -766
-2067 -1394 -2069 -1396 -3 -3 80 -130 184 -285 125 -184 194 -278 202 -274
10 3 10682 7197 10783 7268 13 10 13 9 0 -5 -34 -35 -948 -742 -1246 -964
-177 -131 -1310 -968 -2517 -1859 -1208 -891 -2196 -1624 -2196 -1628 -1 -5
20 -36 45 -69 l47 -60 -24 -23 c-13 -12 -1054 -827 -2314 -1810 -1259 -984
-2292 -1789 -2293 -1791 -6 -5 411 -534 420 -534 5 0 2355 1832 5221 4072
2867 2239 5232 4087 5257 4107 77 60 8 -4 -355 -330 -476 -428 -321 -294
-2772 -2383 -1206 -1028 -2193 -1873 -2193 -1878 0 -5 20 -33 45 -61 25 -29
44 -56 42 -62 -2 -5 -1049 -952 -2328 -2103 -1278 -1152 -2324 -2098 -2324
-2103 0 -5 101 -122 224 -259 l224 -249 56 49 c31 27 2259 2033 4951 4458
2692 2425 4897 4407 4899 4406 15 -13 -2569 -2568 -4678 -4625 l-205 -200 58
-58 58 -58 -2161 -2238 -2161 -2238 192 -186 c106 -103 218 -210 248 -238 l55
-51 4485 4644 c2467 2554 4521 4681 4565 4726 93 98 89 92 -86 -117 -245 -294
-416 -488 -2427 -2755 l-2001 -2255 27 -24 c15 -13 44 -39 64 -57 l38 -34
-1843 -2196 c-1013 -1207 -1842 -2199 -1842 -2203 0 -14 518 -442 525 -434 4
4 1826 2177 4050 4828 2223 2651 4054 4831 4067 4845 80 80 -189 -274 -2366
-3104 -1074 -1396 -1949 -2542 -1944 -2546 4 -4 36 -28 71 -55 34 -26 62 -50
62 -51 0 -2 -648 -896 -1440 -1986 l-1439 -1981 77 -56 c424 -310 473 -344
487 -330 7 8 1598 2197 3535 4864 1938 2668 3527 4855 3533 4860 7 7 7 5 2 -5
-28 -50 -525 -801 -2190 -3310 -1027 -1548 -1892 -2852 -1921 -2897 l-53 -81
80 -52 c43 -29 79 -56 79 -61 0 -5 -442 -716 -981 -1579 -540 -864 -980 -1572
-978 -1574 2 -1 132 -82 288 -180 229 -142 287 -174 296 -164 7 7 1339 2137
2960 4733 1621 2596 2952 4725 2958 4730 15 15 101 167 -2002 -3542 -1080
-1904 -1964 -3465 -1965 -3469 0 -4 38 -31 86 -58 48 -28 90 -54 93 -58 4 -3
-226 -444 -510 -978 -399 -751 -514 -975 -504 -981 34 -21 579 -309 586 -309
4 0 1076 2009 2382 4465 1305 2456 2376 4465 2378 4465 2 0 2 -3 0 -7 -8 -14
-3737 -7813 -3737 -7817 0 -1 50 -26 110 -55 61 -29 110 -56 110 -61 0 -4 -43
-104 -96 -221 -88 -197 -94 -214 -78 -226 10 -7 22 -13 27 -13 5 0 7 -10 3
-22 -3 -13 -111 -257 -241 -542 -129 -286 -232 -523 -228 -527 10 -9 386 -180
389 -176 1 1 111 243 244 537 133 294 244 537 246 539 2 2 40 -12 84 -32 l80
-36 14 27 c7 15 827 1855 1821 4089 995 2235 1810 4062 1812 4060 1 -2 -763
-1940 -1698 -4308 -936 -2367 -1702 -4312 -1703 -4322 -1 -15 24 -29 113 -64
83 -34 115 -43 121 -34 4 7 112 279 240 604 128 326 234 593 235 595 2 2 45
-14 63 -23 1 -1 -217 -591 -484 -1311 -267 -720 -492 -1326 -499 -1346 l-14
-37 202 -74 c111 -42 205 -72 208 -69 3 4 228 606 499 1337 271 732 496 1334
501 1339 5 5 38 -2 80 -17 40 -15 74 -26 75 -24 2 2 608 1662 1346 3690 738
2028 1343 3686 1344 3684 2 -1 -656 -2086 -1462 -4632 -806 -2547 -1480 -4678
-1498 -4737 l-34 -108 121 -39 c109 -35 123 -37 129 -22 4 9 208 650 453 1426
245 775 447 1411 449 1412 7 7 56 -17 56 -27 0 -6 -281 -969 -625 -2140 -344
-1171 -625 -2135 -625 -2143 0 -9 66 -33 205 -74 l205 -60 19 61 c10 34 294
1002 631 2151 338 1150 615 2091 616 2093 1 2 33 -6 70 -17 38 -11 71 -17 75
-13 4 4 422 1457 930 3230 508 1772 925 3219 926 3215 2 -4 -541 -2265 -1206
-5023 -665 -2758 -1211 -5024 -1213 -5034 -3 -17 12 -23 119 -50 67 -16 124
-28 126 -26 2 3 238 979 525 2169 287 1190 524 2166 527 2169 2 3 17 1 33 -4
l28 -9 -636 -2900 c-548 -2496 -634 -2901 -621 -2907 29 -12 402 -90 407 -85
3 3 292 1310 641 2904 349 1594 636 2899 637 2900 1 1 30 -5 66 -12 36 -7 66
-12 67 -11 2 2 272 1268 601 2814 328 1547 598 2808 600 2804 1 -4 -399 -2387
-888 -5296 -490 -2909 -889 -5290 -888 -5291 9 -8 244 -42 249 -37 3 4 218
1269 478 2811 259 1543 473 2806 475 2808 1 2 17 0 34 -3 26 -5 31 -10 27 -28
-4 -18 -1031 -7009 -1038 -7061 -2 -18 13 -22 208 -51 116 -18 213 -29 216
-25 3 3 240 1600 527 3549 286 1949 522 3545 524 3547 2 3 29 0 59 -4 29 -5
57 -6 60 -3 3 4 156 1080 340 2391 184 1312 335 2376 337 2365 1 -10 -234
-2449 -523 -5419 -289 -2970 -525 -5414 -525 -5431 l0 -30 122 -12 c67 -6 124
-10 126 -7 3 3 651 6638 652 6673 0 7 14 12 35 12 21 0 35 -5 35 -12 0 -7
-138 -1823 -306 -4036 -169 -2212 -305 -4024 -302 -4027 7 -8 417 -39 424 -33
3 3 142 1810 310 4014 168 2205 307 4019 310 4032 4 20 10 22 59 22 30 0 55 1
55 3 1 1 65 916 144 2032 79 1117 144 2005 145 1975 0 -30 -67 -2537 -149
-5570 -83 -3033 -150 -5518 -150 -5522 0 -5 59 -8 130 -8 l130 0 0 51 c0 66
199 7401 202 7459 3 41 5 45 32 48 16 2 32 0 37 -5 6 -6 -24 -5517 -44 -8074
l-4 -536 216 -5 c119 -3 217 -5 218 -4 1 1 13 1866 27 4146 15 2280 28 4219
29 4310 l2 165 52 3 53 3 2 1716 3 1716 238 -5599 c131 -3079 241 -5629 244
-5666 l5 -66 122 5 c66 3 124 8 127 12 3 3 -72 1815 -167 4026 -94 2211 -173
4070 -175 4130 l-4 110 40 0 40 0 275 -4332 c151 -2382 277 -4334 280 -4336 5
-5 421 21 427 27 1 1 -121 1950 -272 4330 -151 2380 -275 4331 -275 4335 0 5
18 11 41 14 22 3 43 8 47 12 3 3 -38 638 -92 1411 -54 773 -97 1407 -95 1409
2 2 292 -2544 643 -5658 351 -3114 640 -5663 641 -5664 2 -4 247 26 251 30 2
2 -219 1974 -491 4382 -377 3344 -491 4381 -482 4387 7 4 26 8 44 8 30 0 32
-3 38 -43 3 -23 253 -1884 555 -4135 301 -2252 551 -4096 553 -4099 3 -2 101
8 217 24 l212 28 -6 40 c-3 22 -251 1872 -551 4110 -300 2239 -548 4087 -551
4108 -6 37 -5 37 28 37 18 0 38 4 44 8 8 5 -35 337 -152 1172 -90 641 -163
1169 -161 1173 1 5 461 -2477 1021 -5515 560 -3038 1020 -5525 1022 -5527 5
-5 120 12 207 31 37 8 47 13 43 26 -3 10 -370 1997 -815 4417 -446 2420 -813
4410 -816 4422 -4 19 1 23 42 31 26 6 49 10 50 8 1 -1 350 -1692 776 -3759
425 -2066 776 -3759 780 -3763 3 -4 100 13 215 36 l209 43 -23 111 c-107 508
-1524 7402 -1524 7413 0 7 14 16 31 20 17 3 33 12 36 19 2 7 -88 450 -202 984
-114 534 -205 973 -203 975 2 2 611 -2354 1353 -5236 743 -2883 1353 -5246
1357 -5251 4 -8 44 -1 123 20 65 17 119 33 121 35 2 2 -493 1934 -1101 4293
-608 2359 -1105 4294 -1105 4300 0 15 89 40 99 28 5 -5 417 -1470 917 -3257
499 -1786 911 -3252 914 -3257 4 -6 88 13 210 47 113 31 206 57 207 58 2 1
-1790 6416 -1823 6527 -4 13 3 18 30 24 20 3 36 12 36 18 0 7 -108 390 -240
851 -133 460 -239 839 -238 841 2 1 734 -2186 1627 -4862 893 -2675 1627
-4864 1630 -4864 6 0 187 59 228 75 9 3 -396 1229 -1322 4002 -734 2198 -1331
4000 -1327 4004 8 7 104 40 107 36 1 -1 433 -1212 961 -2690 527 -1479 961
-2693 965 -2698 4 -8 393 122 407 136 2 2 -427 1211 -954 2687 -526 1476 -959
2691 -962 2701 -3 13 4 21 27 30 17 6 31 15 31 19 0 4 -124 348 -275 764 -151
417 -274 759 -272 761 2 1 820 -1972 1817 -4387 997 -2414 1817 -4390 1821
-4390 5 0 57 20 116 44 83 34 108 49 107 63 0 10 -659 1610 -1463 3557 -804
1946 -1460 3540 -1459 3542 13 13 114 52 120 46 4 -4 417 -945 919 -2092 501
-1147 915 -2089 920 -2094 7 -8 372 144 392 163 4 4 -400 939 -899 2077 -498
1138 -912 2084 -919 2102 -14 32 -14 32 19 46 l34 14 -344 773 c-189 425 -343
774 -341 775 1 2 873 -1747 1937 -3887 1064 -2139 1935 -3889 1937 -3889 14 0
223 112 223 119 0 7 -2672 5389 -2929 5898 l-41 83 68 34 68 34 783 -1496
c431 -824 785 -1498 786 -1500 4 -4 366 185 378 197 4 4 -346 682 -777 1507
l-785 1499 29 14 c17 8 30 18 30 22 0 5 -186 358 -414 786 -448 844 -453 853
-439 838 5 -5 880 -1492 1944 -3302 1064 -1811 1936 -3293 1940 -3293 4 0 206
116 217 125 1 1 -612 1048 -1363 2326 -751 1278 -1365 2326 -1365 2330 0 14
132 91 141 82 5 -5 261 -418 570 -919 308 -500 566 -909 572 -908 7 1 91 50
188 110 l177 110 -569 923 c-313 508 -569 924 -569 926 0 2 13 12 30 22 l30
19 -555 889 c-605 967 -572 914 -558 900 6 -5 817 -1187 1803 -2625 986 -1438
1796 -2619 1801 -2624 9 -10 215 128 212 141 -1 7 -1846 2702 -2269 3316 -41
59 -73 107 -70 107 2 0 54 -70 116 -155 62 -85 115 -155 119 -155 4 0 35 20
69 45 34 25 64 45 66 45 2 0 122 -164 265 -364 143 -200 269 -373 278 -385
l18 -22 170 121 c94 67 171 125 173 130 2 5 -121 184 -274 396 -209 292 -273
389 -263 395 57 32 104 -40 -662 1014 -391 539 -716 987 -722 995 -78 109 267
-324 1533 -1920 827 -1042 1508 -1901 1515 -1908 9 -10 31 2 106 63 52 41 94
81 94 89 0 8 -378 490 -840 1072 -1229 1548 -1213 1527 -640 844 196 -234 360
-425 365 -425 9 0 520 424 520 432 0 2 -399 479 -887 1061 -1111 1324 -995
1186 -946 1137 22 -22 550 -598 1173 -1280 623 -682 1149 -1257 1170 -1279
l37 -38 89 81 c49 45 89 88 89 95 0 7 -310 352 -689 767 -379 415 -646 711
-593 659 52 -52 380 -390 727 -750 347 -360 635 -656 640 -658 8 -3 490 457
490 468 0 4 -537 562 -1192 1242 -656 679 -1204 1248 -1218 1264 -26 29 370
-347 1270 -1204 l515 -491 88 88 c48 49 87 93 87 98 0 6 -207 207 -460 447
-253 241 -460 440 -460 442 0 2 518 -462 1151 -1032 973 -877 1153 -1035 1164
-1023 7 8 110 122 229 254 l215 240 -32 31 c-17 17 -711 642 -1542 1389 -1459
1312 -1623 1461 -1505 1364 30 -25 316 -261 635 -524 319 -263 585 -482 591
-487 12 -9 176 180 168 194 -3 4 -130 111 -284 238 -154 127 -280 233 -280
235 0 2 738 -573 1641 -1278 902 -705 1644 -1282 1649 -1282 5 0 101 119 215
264 197 253 205 265 188 282 -10 9 -884 693 -1943 1519 -1631 1273 -2045 1598
-1940 1523 8 -6 184 -131 390 -278 206 -147 380 -272 386 -276 8 -7 34 22 83
90 39 55 71 104 71 110 0 5 -67 57 -150 116 -82 59 -150 109 -150 111 0 2 136
-88 303 -200 166 -112 1159 -782 2207 -1489 l1904 -1284 26 36 c14 20 101 147
192 283 l166 247 -2404 1621 c-1322 892 -2404 1623 -2404 1626 0 2 71 -40 158
-93 212 -130 222 -136 226 -132 2 2 31 51 66 108 70 115 70 104 4 149 -18 12
-18 12 1 3 11 -5 1264 -727 2784 -1605 1520 -878 2767 -1596 2770 -1596 12 0
342 583 334 591 -4 4 -1304 756 -2888 1670 -1584 914 -2884 1666 -2890 1671
-5 5 2 4 18 -3 15 -7 29 -10 30 -8 2 2 30 54 62 115 l59 111 250 -122 c138
-67 1670 -814 3404 -1660 1799 -877 3157 -1534 3162 -1529 5 5 74 143 154 307
l145 298 -112 53 c-264 125 -6862 3347 -6868 3354 -7 8 90 232 101 232 5 0
1796 -722 3980 -1605 2185 -883 3976 -1605 3979 -1605 3 0 63 142 133 316 124
308 127 315 105 323 -192 75 -8023 3244 -8028 3249 -4 4 12 58 34 120 36 101
43 113 61 109 12 -2 1998 -647 4414 -1432 2416 -785 4395 -1425 4398 -1422 5
5 213 641 211 643 -1 1 -1986 646 -4412 1434 -2425 788 -4413 1434 -4417 1436
-3 2 5 43 18 92 14 48 28 102 31 120 3 17 8 32 11 32 4 0 9264 -2307 9292
-2315 12 -4 31 59 98 326 45 183 81 333 80 334 -2 1 -2075 518 -4608 1149
-2533 631 -4606 1149 -4608 1151 -2 2 7 57 21 124 22 108 22 120 8 124 -68 18
600 -99 4678 -818 2539 -447 4629 -815 4645 -817 l30 -3 59 333 c32 184 57
335 55 336 -1 1 -2056 364 -4566 806 -2510 443 -4568 808 -4574 811 -8 5 -7
40 5 125 11 82 12 121 5 125 -6 4 -60 13 -122 20 -61 7 -104 15 -95 16 8 2
2075 -213 4593 -477 2518 -265 4579 -480 4581 -478 3 3 74 672 72 674 -1 1
-1966 208 -4367 460 -2401 253 -4349 460 -4329 462 l37 3 7 120 c4 67 3 124
-1 128 -5 5 -153 17 -329 27 -176 11 -302 20 -280 22 22 1 2016 -67 4430 -152
2415 -85 4392 -152 4394 -151 7 7 26 670 20 675 -4 3 -1876 70 -4161 150
-3224 113 -4095 146 -3895 148 l257 2 0 132 0 131 -542 -4 c-299 -3 -534 -3
-522 -1 11 1 1869 67 4128 146 2259 79 4110 147 4113 150 7 7 -12 665 -20 672
-4 4 -7371 -249 -7566 -260 -52 -3 -92 -3 -89 0 3 2 231 22 508 44 276 21 503
40 504 42 1 2 -3 59 -9 128 l-10 125 -35 -3 c-19 -1 -356 -27 -749 -57 -393
-31 -722 -54 -730 -53 -8 2 1660 179 3707 394 2048 215 3725 394 3728 397 6 6
-60 665 -67 671 -2 2 -1559 -160 -3459 -360 -1900 -200 -3464 -363 -3475 -361
-11 1 358 58 820 126 462 68 845 126 851 128 8 3 5 40 -8 125 -10 67 -20 123
-22 125 -2 3 -478 -66 -1056 -152 -579 -86 -1056 -155 -1061 -153 -4 2 1480
265 3298 586 1819 320 3308 583 3309 585 4 4 -113 658 -119 664 -4 3 -1402
-240 -3108 -541 -1706 -301 -3103 -546 -3105 -544 -1 2 565 129 1259 282 694
153 1263 279 1264 280 1 1 -10 56 -24 124 -20 90 -30 122 -41 122 -8 0 -637
-137 -1398 -305 -760 -168 -1397 -307 -1416 -310 -54 -8 489 129 3185 800
l2557 638 -5 31 -6 31 661 160 c364 88 666 162 670 165 8 5 -84 407 -95 418
-2 2 -304 -69 -670 -158 -367 -89 -669 -159 -672 -156 -3 2 -15 42 -26 89
l-22 84 -2735 -683 c-1504 -376 -2741 -682 -2747 -681 -7 1 765 231 1715 511
950 280 1732 512 1738 515 8 4 0 44 -24 129 -28 97 -39 121 -51 117 -140 -44
-3614 -1065 -3617 -1063 -1 2 1098 362 2444 799 2588 841 2448 793 2439 843
-1 4 635 211 1413 458 778 248 1416 452 1418 453 4 4 -119 397 -127 407 -3 4
-642 -195 -1420 -442 -778 -248 -1417 -450 -1420 -450 -3 0 -18 40 -34 90
l-27 89 -43 -15 c-259 -86 -4752 -1542 -4754 -1540 -2 1 1004 378 2234 836
1231 459 2240 835 2241 836 2 2 -16 56 -40 121 -33 88 -48 117 -60 115 -8 -1
-1011 -373 -2228 -827 -1217 -454 -2215 -823 -2217 -822 -2 2 909 373 2024
823 2015 814 2028 819 2028 847 0 28 9 31 1550 643 853 338 1772 703 2043 810
270 108 492 201 492 207 0 27 -155 397 -164 393 -6 -2 -927 -367 -2046 -811
-1119 -444 -2038 -809 -2041 -811 -4 -2 -21 33 -39 79 -18 45 -36 86 -40 90
-4 5 -938 -368 -2075 -827 -1138 -460 -2070 -834 -2072 -832 -2 1 1222 560
2719 1240 1498 681 2726 1241 2729 1244 8 8 -92 232 -103 232 -4 0 -1185 -535
-2624 -1190 -1440 -654 -2619 -1188 -2621 -1186 -2 1 733 362 1632 801 1526
744 1635 799 1633 822 -3 22 160 101 2537 1242 1397 671 2539 1223 2539 1228
-4 19 -180 382 -186 383 -4 0 -1147 -547 -2540 -1216 -1393 -669 -2537 -1218
-2543 -1220 -5 -2 -25 29 -43 70 -19 41 -39 82 -45 91 -11 13 -244 -98 -1836
-874 -1003 -489 -1821 -888 -1818 -885 3 3 1437 781 3188 1730 1751 948 3187
1728 3192 1733 11 11 -104 227 -119 224 -7 -1 -5621 -3040 -5901 -3195 -40
-21 -73 -37 -73 -35 0 3 592 346 1314 763 1148 663 1314 762 1310 779 -4 18
353 224 2884 1664 l2889 1643 -107 187 c-59 102 -112 185 -119 183 -6 -1
-1300 -735 -2874 -1630 -1574 -896 -2871 -1634 -2883 -1640 -19 -10 -25 -4
-71 76 -27 48 -54 86 -59 85 -7 -1 -2880 -1657 -3064 -1766 -180 -106 455 300
3475 2218 1920 1220 3496 2223 3503 2230 11 10 1 32 -54 118 l-68 107 -30 -18
c-29 -17 -6370 -4048 -6429 -4087 -15 -9 -27 -15 -27 -13 0 2 477 326 1059
718 795 536 1057 718 1049 727 -10 12 206 157 4905 3282 l1147 764 -17 27
c-95 148 -220 330 -226 330 -4 0 -1363 -902 -3021 -2005 -1657 -1102 -3020
-2007 -3029 -2011 -12 -4 -31 17 -73 80 l-57 86 -26 -16 c-21 -14 -1522 -1025
-2526 -1702 -110 -74 -193 -128 -185 -120 8 9 1678 1243 3710 2743 2032 1500
3701 2733 3708 2740 11 10 1 30 -60 113 -40 56 -75 101 -78 102 -3 0 -1440
-1060 -3195 -2356 -3662 -2705 -3495 -2581 -3475 -2561 8 9 393 311 855 672
462 360 841 663 843 673 2 9 1318 1030 2925 2269 1607 1239 2930 2258 2939
2265 16 12 5 29 -113 183 -72 94 -132 171 -134 173 -2 3 -5221 -4016 -5811
-4474 l-80 -63 -68 90 c-46 59 -72 86 -80 80 -6 -4 -569 -444 -1251 -976 -682
-533 -1260 -984 -1285 -1004 -25 -19 -38 -28 -30 -19 8 9 1712 1461 3785 3228
2074 1767 3778 3220 3788 3230 18 16 16 20 -53 101 -40 46 -78 90 -85 98 -11
11 -552 -446 -3267 -2760 -1789 -1525 -3282 -2797 -3318 -2828 -151 -128 26
34 705 643 396 356 725 655 730 665 6 10 1198 1074 2650 2365 1452 1291 2641
2350 2643 2354 3 11 -278 324 -289 320 -4 -2 -1190 -1054 -2634 -2338 -1445
-1284 -2635 -2341 -2647 -2349 -18 -14 -25 -9 -98 70 l-78 84 -28 -26 c-56
-51 -2340 -2105 -2439 -2193 l-100 -89 105 105 c58 57 1738 1706 3733 3663
l3629 3558 -88 88 c-49 49 -92 89 -97 89 -4 0 -1066 -1038 -2360 -2307 -3824
-3751 -3913 -3838 -3887 -3808 94 108 1833 1897 3620 3724 1163 1189 2116
2167 2118 2174 1 7 -67 78 -152 159 l-153 147 -2104 -2150 c-1157 -1182 -2145
-2194 -2196 -2247 l-91 -97 -85 83 c-46 45 -89 82 -94 82 -5 0 -594 -605
-1308 -1345 -714 -740 -1300 -1345 -1302 -1345 -3 0 42 52 99 116 57 64 1634
1843 3505 3953 l3402 3836 -52 48 c-29 27 -73 66 -98 87 l-46 39 -2827 -3189
c-1555 -1755 -2830 -3190 -2833 -3190 -2 0 31 42 74 93 43 50 140 164 214 252
75 88 1078 1269 2230 2625 1152 1356 2100 2473 2107 2481 10 14 -9 34 -143
148 -85 72 -161 134 -169 137 -9 4 -531 -603 -1626 -1893 -887 -1044 -1622
-1908 -1634 -1920 l-21 -22 -94 79 c-52 44 -98 80 -102 80 -3 0 -624 -736
-1378 -1635 -755 -899 -1374 -1635 -1377 -1635 -3 0 24 37 59 83 373 478 6297
8191 6297 8197 0 5 -44 43 -97 84 -76 59 -100 73 -109 63 -7 -7 -1048 -1360
-2314 -3007 -1980 -2576 -2443 -3176 -2308 -2990 14 19 748 1018 1633 2218
1338 1818 1605 2186 1594 2197 -8 7 -86 65 -173 129 -152 112 -160 116 -176
99 -10 -10 -471 -634 -1025 -1388 -554 -753 -1009 -1371 -1010 -1373 -1 -1
-51 33 -111 77 -82 60 -112 76 -120 68 -7 -7 -672 -921 -1479 -2032 -807
-1111 -1471 -2024 -1477 -2030 -18 -18 147 232 2890 4368 1492 2248 2712 4089
2712 4092 0 2 -47 36 -105 75 l-105 70 -118 -177 c-65 -98 -860 -1296 -1767
-2663 -1410 -2127 -1700 -2562 -1662 -2495 3 6 441 698 975 1540 l969 1529
-171 109 c-94 61 -178 112 -186 114 -12 3 -130 -175 -435 -657 -230 -363 -422
-663 -427 -666 -5 -3 -61 27 -124 66 -97 61 -118 70 -129 59 -7 -8 -718 -1143
-1580 -2524 -1353 -2166 -1670 -2671 -1568 -2495 270 464 4762 8403 4758 8409
-6 11 -200 121 -212 121 -4 0 -556 -968 -1227 -2150 -670 -1183 -1221 -2150
-1223 -2150 -3 0 8 24 24 53 17 28 193 355 393 725 368 682 367 680 326 695
-5 2 32 80 82 175 51 94 92 175 92 179 0 4 -134 79 -298 165 -236 126 -299
155 -307 144 -5 -7 -736 -1380 -1624 -3050 -888 -1670 -1616 -3035 -1617
-3033 -2 2 872 1834 1942 4071 1070 2238 1944 4069 1942 4071 -11 10 -210 105
-220 105 -7 0 -360 -726 -793 -1632 -430 -897 -785 -1633 -791 -1635 -5 -2
-17 2 -27 9 -15 12 29 114 448 1056 256 574 465 1044 465 1046 0 6 -620 279
-624 275 -2 -2 -725 -1625 -1607 -3606 -882 -1981 -1605 -3601 -1606 -3599 -1
1 682 1735 1519 3852 836 2117 1523 3858 1525 3869 4 18 -10 26 -105 63 -119
46 -128 48 -135 30 -81 -210 -1361 -3444 -1363 -3447 -2 -2 -7 -1 -11 2 -3 4
297 839 667 1857 371 1017 671 1852 668 1855 -7 7 -631 235 -634 232 -2 -2
-670 -1835 -1485 -4075 -816 -2239 -1484 -4070 -1486 -4068 -2 2 500 1596
1116 3542 616 1947 1122 3551 1126 3565 6 24 3 26 -116 63 -66 20 -122 36
-123 34 -1 -2 -205 -643 -452 -1425 -247 -782 -450 -1420 -452 -1418 -2 1 288
1016 643 2255 355 1239 645 2253 643 2254 -8 6 -651 186 -653 184 -2 -2 -587
-2040 -1301 -4530 -714 -2490 -1299 -4526 -1301 -4524 -1 1 350 1465 781 3252
431 1787 786 3263 790 3279 l6 30 -121 29 c-83 19 -124 25 -128 17 -4 -6 -94
-373 -201 -815 -106 -443 -195 -804 -197 -802 -4 3 968 4593 982 4646 4 12
-58 28 -328 85 -287 61 -333 69 -338 55 -3 -8 -471 -2204 -1040 -4878 -568
-2675 -1035 -4860 -1036 -4855 -2 6 217 1321 487 2924 269 1603 491 2923 493
2934 2 17 -11 21 -124 40 l-126 21 -39 -230 c-21 -126 -40 -223 -42 -215 -1 7
148 1083 332 2389 184 1306 333 2376 331 2378 -1 1 -153 24 -338 50 l-335 48
-5 -31 c-2 -16 -332 -2365 -733 -5219 -401 -2854 -730 -5182 -732 -5174 -2 8
112 1196 253 2640 140 1444 255 2635 255 2645 0 18 -12 21 -117 32 -64 6 -119
14 -122 17 -2 2 82 1242 188 2755 106 1513 190 2753 188 2756 -5 4 -670 53
-674 49 -2 -1 -177 -2497 -390 -5547 -214 -3049 -389 -5533 -391 -5519 -1 14
27 1105 63 2424 36 1319 64 2401 62 2402 -2 2 -52 7 -110 11 l-107 6 0 3269 0
3268 -340 0 -340 0 0 -5807 c0 -3193 -2 -5804 -5 -5801 -3 2 -45 954 -94 2114
-50 1160 -93 2161 -96 2224 l-7 115 -99 -3 c-98 -4 -99 -4 -99 20 0 35 -489
7035 -496 7096 l-5 52 -52 -1 c-29 -1 -182 -11 -340 -22z m4350 -5694 c-3 -10
-5 -4 -5 12 0 17 2 24 5 18 2 -7 2 -21 0 -30z m1110 -515 c-3 -7 -5 -2 -5 12
0 14 2 19 5 13 2 -7 2 -19 0 -25z m-10 -40 c-3 -8 -6 -5 -6 6 -1 11 2 17 5 13
3 -3 4 -12 1 -19z m-10 -40 c-3 -8 -6 -5 -6 6 -1 11 2 17 5 13 3 -3 4 -12 1
-19z m5663 -3832 c0 -2 -8 -10 -17 -17 -16 -13 -17 -12 -4 4 13 16 21 21 21
13z m-30 -40 c0 -2 -8 -10 -17 -17 -16 -13 -17 -12 -4 4 13 16 21 21 21 13z
m-7373 -998 c-3 -7 -5 -2 -5 12 0 14 2 19 5 13 2 -7 2 -19 0 -25z m-830 -100
c-3 -7 -5 -2 -5 12 0 14 2 19 5 13 2 -7 2 -19 0 -25z m8643 -51 c0 -2 -15 -16
-32 -33 l-33 -29 29 33 c28 30 36 37 36 29z m-10983 -394 c-3 -10 -5 -4 -5 12
0 17 2 24 5 18 2 -7 2 -21 0 -30z m-1530 -115 c-3 -8 -6 -5 -6 6 -1 11 2 17 5
13 3 -3 4 -12 1 -19z m10593 -702 c0 -2 -8 -10 -17 -17 -16 -13 -17 -12 -4 4
13 16 21 21 21 13z m-7275 -441 c875 -63 1748 -248 2555 -540 350 -127 371
-135 705 -285 361 -161 804 -399 1153 -618 3727 -2339 5389 -6908 4035 -11090
-1202 -3715 -4532 -6329 -8438 -6624 -426 -32 -967 -32 -1395 0 -1560 117
-3084 617 -4400 1442 -265 166 -689 463 -855 599 -659 540 -1149 1033 -1610
1621 -1034 1321 -1708 2905 -1950 4585 -72 495 -104 1127 -85 1658 128 3674
2335 6949 5690 8445 1444 644 3023 921 4595 807z m11915 -3820 c-25 -13 -49
-24 -55 -24 -5 0 10 11 35 24 25 13 50 24 55 24 6 0 -10 -11 -35 -24z m-70
-325 c-8 -5 -19 -10 -25 -10 -5 0 -3 5 5 10 8 5 20 10 25 10 6 0 3 -5 -5 -10z
m340 -610 c-8 -5 -19 -10 -25 -10 -5 0 -3 5 5 10 8 5 20 10 25 10 6 0 3 -5 -5
-10z m307 -1896 c-3 -3 -12 -4 -19 -1 -8 3 -5 6 6 6 11 1 17 -2 13 -5z m380
-190 c-3 -3 -12 -4 -19 -1 -8 3 -5 6 6 6 11 1 17 -2 13 -5z m-284 -751 c-7 -2
-19 -2 -25 0 -7 3 -2 5 12 5 14 0 19 -2 13 -5z m460 -200 c-7 -2 -19 -2 -25 0
-7 3 -2 5 12 5 14 0 19 -2 13 -5z m114 -959 c-3 -3 -12 -4 -19 -1 -8 3 -5 6 6
6 11 1 17 -2 13 -5z m-23784 -2221 c-7 -2 -21 -2 -30 0 -10 3 -4 5 12 5 17 0
24 -2 18 -5z m23235 -350 c-10 -2 -28 -2 -40 0 -13 2 -5 4 17 4 22 1 32 -1 23
-4z m-23001 -319 c-3 -3 -12 -4 -19 -1 -8 3 -5 6 6 6 11 1 17 -2 13 -5z
m22826 -601 c-7 -2 -19 -2 -25 0 -7 3 -2 5 12 5 14 0 19 -2 13 -5z m50 -10
c-7 -2 -19 -2 -25 0 -7 3 -2 5 12 5 14 0 19 -2 13 -5z m-2182 -6350 c13 -16
12 -17 -3 -4 -10 7 -18 15 -18 17 0 8 8 3 21 -13z m-14870 -540 c-12 -20 -14
-14 -5 12 4 9 9 14 11 11 3 -2 0 -13 -6 -23z m14330 -310 c13 -16 12 -17 -3
-4 -17 13 -22 21 -14 21 2 0 10 -8 17 -17z m-2550 -410 c13 -16 12 -17 -3 -4
-17 13 -22 21 -14 21 2 0 10 -8 17 -17z m-10514 -85 c-3 -8 -6 -5 -6 6 -1 11
2 17 5 13 3 -3 4 -12 1 -19z m700 -300 c-3 -8 -6 -5 -6 6 -1 11 2 17 5 13 3
-3 4 -12 1 -19z m11774 -35 c13 -16 12 -17 -3 -4 -10 7 -18 15 -18 17 0 8 8 3
21 -13z m-11054 -285 c-3 -7 -5 -2 -5 12 0 14 2 19 5 13 2 -7 2 -19 0 -25z
m5753 -523 c0 -5 -5 -3 -10 5 -5 8 -10 20 -10 25 0 6 5 3 10 -5 5 -8 10 -19
10 -25z m4715 -75 c10 -11 16 -20 13 -20 -3 0 -13 9 -23 20 -10 11 -16 20 -13
20 3 0 13 -9 23 -20z m-7298 -22 c-3 -7 -5 -2 -5 12 0 14 2 19 5 13 2 -7 2
-19 0 -25z m850 -40 c-3 -8 -6 -5 -6 6 -1 11 2 17 5 13 3 -3 4 -12 1 -19z"/>
</g>
</svg>
